<svg viewBox="0 0 24 24" class="prefix__style-scope prefix__yt-icon" style="width:100%;height:100%" pointer-events="none" display="block"><g class="prefix__style-scope prefix__yt-icon"><path d="M16.97 4l-4.99 2.8L6.99 4 2 6.8v7.6l9.98 5.6 9.98-5.6V6.8L16.97 4zM10 12H8v2H6v-2H4v-2h2V8h2v2h2v2zm5.5 2c-.83 0-1.5-.67-1.5-1.5s.67-1.5 1.5-1.5 1.5.67 1.5 1.5-.67 1.5-1.5 1.5zm3-3c-.83 0-1.5-.67-1.5-1.5S17.67 8 18.5 8s1.5.67 1.5 1.5-.67 1.5-1.5 1.5z" class="prefix__style-scope prefix__yt-icon"/></g></svg>